# xmcd
#
# Track frame offsets: 
#        150
#        16305
#        30282
#        48180
#        61445
#        76547
#        89602
#        104415
#        121595
#        144257
#        158400
#        173600
#        185659
#        204850
#        220050
#        234437
#
# Disc length: 3361 seconds
#
# Revision: 2
# Processed by: cddbd v1.5.2PL0 Copyright (c) Steve Scherf et al.
# Submitted via: ExactAudioCopyFreeDBPlugin 1.0
#
DISCID=b70d1f10
DTITLE=Monster Hits - MH1057
DYEAR=1900
DGENRE=Karaoke
TTITLE0=Keith Whitley - I'm No Stranger To The Rain
TTITLE1=George Strait - Love Without End, Amen
TTITLE2=Vince Gill - Never Knew Lonely
TTITLE3=Mark Chesnutt - Blame It On Texas
TTITLE4=Lee Greenwood - I.O.U.
TTITLE5=Randy Travis - Honky Tonk Moon
TTITLE6=Lee Greenwood - God Bless The U.S.A.
TTITLE7=Mark Chesnutt - I'll Think Of Something
TTITLE8=Dan Seals - Everything That Glitters (Is Not Gold)
TTITLE9=Restless Heart - Why Does It Have To Be (Wrong Or Right)
TTITLE10=Ricky Van Shelton - Life Turned Her That Way
TTITLE11=Hank Williams, Jr. - Dixie On My Mind
TTITLE12=Doug Stone - Dream High
TTITLE13=Steve Wariner - Life's Highway
TTITLE14=Randy Travis - If I Didn't Have You
TTITLE15=Alabama - Can't Keep A Good Man Down
EXTD=
EXTT0=
EXTT1=
EXTT2=
EXTT3=
EXTT4=
EXTT5=
EXTT6=
EXTT7=
EXTT8=
EXTT9=
EXTT10=
EXTT11=
EXTT12=
EXTT13=
EXTT14=
EXTT15=
PLAYORDER=
